<?xml version="1.0" encoding="UTF-8"?>
<svg version="1.1" xmlns="http://www.w3.org/2000/svg" xmlns:xlink="http://www.w3.org/1999/xlink" viewBox="0 0 120 120" width="300" height="300" style="enable-background:new 0 0 100 100;" xml:space="preserve" >
  <rect stroke="none" fill="#000000" fill-opacity="0.25" width="120" height="120" x="0" y="0" />


  <!-- <svg height='300px' width='300px'  fill="#000000" xmlns:x="http://ns.adobe.com/Extensibility/1.0/" xmlns:i="http://ns.adobe.com/AdobeIllustrator/10.0/" xmlns:graph="http://ns.adobe.com/Graphs/1.0/" xmlns="http://www.w3.org/2000/svg" xmlns:xlink="http://www.w3.org/1999/xlink" version="1.1" x="0px" y="0px" viewBox="0 0 100 100" style="enable-background:new 0 0 100 100;" xml:space="preserve"> -->
  <g>
  	<g transform="translate (10 10)" fill="#FCFCFC">
  		<g>
  			<path d="M85.5,2.5H14.5c-6.6,0-12,5.4-12,12v70.9c0,6.6,5.4,12,12,12h70.9c6.6,0,12-5.4,12-12V14.5C97.5,7.9,92.1,2.5,85.5,2.5z      M89.7,85.5c0,2.3-1.9,4.3-4.3,4.3H14.5c-2.3,0-4.3-1.9-4.3-4.3V14.5c0-2.3,1.9-4.3,4.3-4.3h70.9c2.3,0,4.3,1.9,4.3,4.3V85.5z" />
  			<path d="M75.7,47.4L51.3,31.1c-2.1-1.4-4.9,0.1-4.9,2.6v32.6c0,2.5,2.8,4,4.9,2.6l24.5-16.3C77.6,51.4,77.6,48.6,75.7,47.4z" />
  			<path d="M39.3,30.5h-6.9c-0.9,0-1.6,0.7-1.6,1.6v35.7c0,0.9,0.7,1.6,1.6,1.6h6.9c0.9,0,1.6-0.7,1.6-1.6V32.1     C40.9,31.3,40.2,30.5,39.3,30.5z" />
  		</g>
  	</g>
  </g>
</svg>