<?xml version="1.0" encoding="UTF-8"?>
<svg version="1.1" xmlns="http://www.w3.org/2000/svg" xmlns:xlink="http://www.w3.org/1999/xlink" width="100" height="100" viewBox="0 0 100 100" style="enable-background:new 0 0 100 100;" xml:space="preserve">
	<g>
		<g>
  		<g stroke-width="0" fill="#F0F0F0">
	      <path d="M89.08,100A8.53,8.53,0,0,1,83,97.5l-33-33-33,33a8.83,8.83,0,0,1-12.15,0L2.52,95.17A8.61,8.61,0,0,1,2.52,83l33-33-33-33a8.61,8.61,0,0,1,0-12.15L4.83,2.53A8.61,8.61,0,0,1,17,2.53l33,33,33-33a8.61,8.61,0,0,1,12.15,0l2.31,2.31a8.61,8.61,0,0,1,0,12.15l-33,33,33,33a8.61,8.61,0,0,1,0,12.15l-2.31,2.31A8.53,8.53,0,0,1,89.08,100Z" />
	    </g>
	  </g>
	</g>
</svg>